<svg xmlns="http://www.w3.org/2000/svg" viewBox="0 0 24 24"><title>48.Target</title><g id="_48.Target" data-name="48.Target"><path d="M12,24A12,12,0,1,1,24,12,12.013,12.013,0,0,1,12,24ZM12,2A10,10,0,1,0,22,12,10.011,10.011,0,0,0,12,2Z"/><path d="M12,18a6,6,0,1,1,6-6A6.006,6.006,0,0,1,12,18ZM12,8a4,4,0,1,0,4,4A4,4,0,0,0,12,8Z"/><rect x="11" y="4" width="2" height="6"/><rect x="11" y="14" width="2" height="6"/><rect x="14" y="11" width="6" height="2"/><rect x="4" y="11" width="6" height="2"/></g></svg>