<?xml version="1.0" encoding="iso-8859-1"?>
<!-- Generator: Adobe Illustrator 19.0.0, SVG Export Plug-In . SVG Version: 6.00 Build 0)  -->
<svg version="1.1" id="Layer_1" xmlns="http://www.w3.org/2000/svg" xmlns:xlink="http://www.w3.org/1999/xlink" x="0px" y="0px"
	 viewBox="0 0 511.994 511.994" style="enable-background:new 0 0 511.994 511.994;" xml:space="preserve">
<g>
	<g>
		<path d="M404.215,220.08c0.709-2.125,1.109-4.39,1.109-6.753c0-111.523-19.524-164.419-74.813-170.136l2.441-15.133
			c1.937-12.009-6.544-23.204-18.628-24.591C293.911,1.124,274.965,0,255.251,0c-19.662,0-40.175,1.117-59.036,3.25
			c-12.246,1.384-20.775,12.827-18.603,24.958l2.704,15.105c-54.409,6.331-73.658,59.269-73.658,170.014
			c0,1.157,0.117,2.284,0.295,3.39C79.998,248.777,64,290.3,64,336.911c0,68.207,36.229,130.105,94.072,164.342
			c12.059,7.119,25.959,10.74,40.221,10.74h115.392c14.255,0,28.129-3.605,40.157-10.706
			c58.671-34.709,95.069-97.763,94.134-166.969C447.402,291.793,430.842,251.876,404.215,220.08z M255.251,42.667
			c10.751,0,21.243,0.364,31.947,1.115l-6.313,39.142c-10.655-1.383-18.145-2.049-25.634-2.049c-6.809,0-13.827,0.627-23.364,1.884
			c-0.394,0.052-0.765,0.101-1.137,0.151l-7.026-39.244C234.19,43.007,244.857,42.667,255.251,42.667z M187.876,85.541l4.455,24.885
			c1.959,10.941,11.99,18.545,23.053,17.475c4.444-0.43,7.282-0.8,16.517-2.083c2.811-0.39,3.974-0.549,5.561-0.758
			c7.835-1.033,13.268-1.518,17.788-1.518c5.222,0,11.189,0.531,20.182,1.699c2.501,0.329,2.501,0.329,5.051,0.672
			c8.517,1.147,11.647,1.544,16.073,1.983c11.222,1.114,21.372-6.699,23.168-17.832l3.961-24.561
			c23.782,2.271,35.864,27.532,38.44,96.714c-30.692-20.633-67.197-32.89-105.401-32.89c-39.778,0-76.376,10.896-106.756,30.001
			C152.755,112.725,164.702,88.032,187.876,85.541z M332.135,464.555c-5.277,3.115-11.651,4.772-18.45,4.772H198.293
			c-6.798,0-13.198-1.667-18.509-4.803c-45.002-26.637-73.117-74.673-73.117-127.613c0-83.166,65.069-144.917,150.059-144.917
			c77.781,0,147.561,66.879,148.589,142.902C406.04,388.616,377.796,437.543,332.135,464.555z"/>
	</g>
</g>
<g>
</g>
<g>
</g>
<g>
</g>
<g>
</g>
<g>
</g>
<g>
</g>
<g>
</g>
<g>
</g>
<g>
</g>
<g>
</g>
<g>
</g>
<g>
</g>
<g>
</g>
<g>
</g>
<g>
</g>
</svg>
